0
SECTION
2
HEADER
9
$INSUNITS
70
4
9
$ACADVER
1
AC1014
9
$HANDSEED
5
FFFF
0
ENDSEC
0
SECTION
2
TABLES
0
TABLE
2
VPORT
5
8
100
AcDbSymbolTable
0
ENDTAB
0
TABLE
2
LTYPE
5
5
100
AcDbSymbolTable
0
LTYPE
5
14
100
AcDbSymbolTableRecord
100
AcDbLinetypeTableRecord
2
BYBLOCK
70
0
0
LTYPE
5
15
100
AcDbSymbolTableRecord
100
AcDbLinetypeTableRecord
2
BYLAYER
70
0
0
LTYPE
5
16
100
AcDbSymbolTableRecord
100
AcDbLinetypeTableRecord
2
DASHED
70
0
3
Dashed __ __ __ __ __ __ __ __ __ __ __ __ __ _
72
65
73
2
40
0.75
49
0.5
74
0
49
-0.25
74
0
0
ENDTAB
0
TABLE
2
LAYER
5
2
100
AcDbSymbolTable
70
2
0
LAYER
5
50
100
AcDbSymbolTableRecord
100
AcDbLayerTableRecord
2
0
70
0
62
7
6
CONTINUOUS
0
ENDTAB
0
TABLE
2
STYLE
5
3
100
AcDbSymbolTable
70
1
0
STYLE
5
11
100
AcDbSymbolTableRecord
100
AcDbTextStyleTableRecord
2
STANDARD
70
0
0
ENDTAB
0
TABLE
2
VIEW
5
6
100
AcDbSymbolTable
70
0
0
ENDTAB
0
TABLE
2
UCS
5
7
100
AcDbSymbolTable
70
0
0
ENDTAB
0
TABLE
2
APPID
5
9
100
AcDbSymbolTable
70
2
0
APPID
5
12
100
AcDbSymbolTableRecord
100
AcDbRegAppTableRecord
2
ACAD
70
0
0
ENDTAB
0
TABLE
2
DIMSTYLE
5
A
100
AcDbSymbolTable
70
1
0
ENDTAB
0
TABLE
2
BLOCK_RECORD
5
1
100
AcDbSymbolTable
70
1
0
BLOCK_RECORD
5
1F
100
AcDbSymbolTableRecord
100
AcDbBlockTableRecord
2
*MODEL_SPACE
0
BLOCK_RECORD
5
1B
100
AcDbSymbolTableRecord
100
AcDbBlockTableRecord
2
*PAPER_SPACE
0
ENDTAB
0
ENDSEC
0
SECTION
2
BLOCKS
0
BLOCK
5
20
100
AcDbEntity
100
AcDbBlockBegin
2
*MODEL_SPACE
0
ENDBLK
5
21
100
AcDbEntity
100
AcDbBlockEnd
0
BLOCK
5
1C
100
AcDbEntity
100
AcDbBlockBegin
2
*PAPER_SPACE
0
ENDBLK
5
1D
100
AcDbEntity
100
AcDbBlockEnd
0
ENDSEC
0
SECTION
2
ENTITIES
0
LWPOLYLINE
5
100
100
AcDbEntity
8
0
100
AcDbPolyline
90
4
70
1
43
0.0
10
62.011473670974873
20
10.881195153604079
10
62.877499074759314
20
11.381195153604082
42
0.57735026918962584
10
56.122500925240701
20
11.381195153604079
10
56.988526329025149
20
10.881195153604075
42
-0.57735026918962551
0
LWPOLYLINE
5
101
100
AcDbEntity
8
0
100
AcDbPolyline
90
4
70
1
43
0.0
10
74.01147367097488
20
10.881195153604079
42
0.57735026918962384
10
68.988526329025149
20
10.881195153604077
10
68.122500925240701
20
11.381195153604073
42
-0.57735026918962495
10
74.877499074759314
20
11.381195153604082
0
LWPOLYLINE
5
102
100
AcDbEntity
8
0
100
AcDbPolyline
90
4
70
1
43
0.0
10
38.011473670974866
20
10.881195153604079
10
38.877499074759314
20
11.381195153604082
42
0.57735026918962551
10
32.122500925240693
20
11.381195153604082
10
32.988526329025134
20
10.881195153604079
42
-0.57735026918962551
0
LWPOLYLINE
5
103
100
AcDbEntity
8
0
100
AcDbPolyline
90
4
70
1
43
0.0
10
50.011473670974873
20
10.881195153604079
42
0.57735026918962384
10
44.988526329025149
20
10.881195153604077
10
44.122500925240693
20
11.381195153604073
42
-0.57735026918962495
10
50.877499074759314
20
11.381195153604082
0
CIRCLE
5
104
100
AcDbEntity
8
0
100
AcDbCircle
10
71.500000000000014
20
9.4311951536040759
30
0
40
2.0999999999999952
210
-0
220
0
230
1
0
CIRCLE
5
105
100
AcDbEntity
8
0
100
AcDbCircle
10
59.500000000000014
20
9.4311951536040812
30
0
40
2.0999999999999952
210
-0
220
0
230
1
0
CIRCLE
5
106
100
AcDbEntity
8
0
100
AcDbCircle
10
47.500000000000007
20
9.4311951536040759
30
0
40
2.0999999999999952
210
-0
220
0
230
1
0
CIRCLE
5
107
100
AcDbEntity
8
0
100
AcDbCircle
10
35.5
20
9.4311951536040812
30
0
40
2.0999999999999952
210
-0
220
0
230
1
0
CIRCLE
5
108
100
AcDbEntity
8
0
100
AcDbCircle
10
2.0000000000002576
20
2.8186951536041027
30
0
40
1.3500000000000001
210
0
220
-0
230
1
0
CIRCLE
5
109
100
AcDbEntity
8
0
100
AcDbCircle
10
2.0000000000002509
20
16.043695153604066
30
0
40
1.3500000000000001
210
0
220
-0
230
1
0
LWPOLYLINE
5
110
100
AcDbEntity
8
0
100
AcDbPolyline
90
8
70
1
43
0.0
10
4.5000000670552254
20
15.431195153604079
10
89.800000000000011
20
15.431195153604079
10
89.800000000000011
20
3.4311951536040786
10
4.5000000670552254
20
3.4311951536040786
10
4.5000000670552254
20
0.19369515360407874
10
0.20000000000000018
20
0.19369515360407874
10
0.20000000000000004
20
18.66869515360408
10
4.5000000670552254
20
18.66869515360408
0
CIRCLE
5
111
100
AcDbEntity
8
0
100
AcDbCircle
10
11.5
20
9.4311951536040812
30
0
40
2.0999999999999979
210
-0
220
0
230
1
0
CIRCLE
5
112
100
AcDbEntity
8
0
100
AcDbCircle
10
23.499999999999996
20
9.4311951536040795
30
0
40
2.0999999999999952
210
-0
220
0
230
1
0
LWPOLYLINE
5
113
100
AcDbEntity
8
0
100
AcDbPolyline
90
4
70
1
43
0.0
10
26.011473670974866
20
10.881195153604082
42
0.57735026918962484
10
20.988526329025134
20
10.881195153604079
10
20.122500925240683
20
11.381195153604086
42
-0.57735026918962529
10
26.87749907475931
20
11.381195153604082
0
LWPOLYLINE
5
114
100
AcDbEntity
8
0
100
AcDbPolyline
90
4
70
1
43
0.0
10
14.011473670974867
20
10.881195153604079
10
14.877499074759308
20
11.381195153604082
42
0.57735026918962562
10
8.1225009252406881
20
11.381195153604082
10
8.9885263290251292
20
10.881195153604077
42
-0.57735026918962584
0
ENDSEC
0
SECTION
2
OBJECTS
0
DICTIONARY
5
C
100
AcDbDictionary
3
ACAD_GROUP
350
D
3
ACAD_MLINESTYLE
350
17
0
DICTIONARY
5
D
100
AcDbDictionary
0
DICTIONARY
5
1A
330
C
100
AcDbDictionary
0
DICTIONARY
5
17
100
AcDbDictionary
0
ENDSEC
0
EOF
