G04*
G04 #@! TF.GenerationSoftware,Altium Limited,Altium Designer,25.8.1 (18)*
G04*
G04 Layer_Physical_Order=4*
G04 Layer_Color=16711680*
%FSLAX25Y25*%
%MOIN*%
G70*
G04*
G04 #@! TF.SameCoordinates,05C96C20-E816-43A1-9C29-CF923D7A875C*
G04*
G04*
G04 #@! TF.FilePolarity,Positive*
G04*
G01*
G75*
%ADD10C,0.01000*%
%ADD42R,0.15748X0.03937*%
%ADD64C,0.01968*%
%ADD65C,0.07874*%
%ADD66R,0.07874X0.07874*%
%ADD67C,0.02598*%
%ADD68C,0.02638*%
D10*
X387795Y249776D02*
Y263386D01*
X385177Y252394D02*
X387795Y249776D01*
X364783Y252394D02*
X385177D01*
X493307Y320866D02*
Y366929D01*
X483071Y250787D02*
Y310630D01*
X493307Y320866D01*
X496457Y341732D02*
X499606Y338583D01*
Y318012D02*
Y338583D01*
X491339Y309744D02*
X499606Y318012D01*
X533858Y289620D02*
X535827Y291589D01*
X533858Y287795D02*
Y289620D01*
Y287795D02*
X555118D01*
X563386Y279528D02*
X590470D01*
X370079Y335039D02*
Y343150D01*
X355906Y319685D02*
X356211Y319991D01*
Y321172D02*
X370079Y335039D01*
X356211Y319991D02*
Y321172D01*
X355906Y313779D02*
X358153D01*
X402587Y358213D01*
X590470Y279528D02*
X590584Y279641D01*
X535827Y291589D02*
X546063D01*
X563386Y279528D02*
X589764Y253150D01*
X504298Y287795D02*
X533858D01*
X500755Y284252D02*
X504298Y287795D01*
X555118D02*
X563386Y279528D01*
X496457Y284252D02*
X500755D01*
X496457Y234252D02*
Y261122D01*
X491339Y266240D02*
X496457Y261122D01*
X550394Y281496D02*
X586614Y245276D01*
X507502Y281496D02*
X550394D01*
X589764Y253150D02*
X595669D01*
X432846Y336579D02*
Y339736D01*
X437071Y336445D02*
X437686D01*
X434362Y335063D02*
X434583D01*
X435788Y333858D01*
X432846Y336579D02*
X434362Y335063D01*
X435788Y333858D02*
X436221D01*
X435433Y337650D02*
X435866D01*
X437071Y336445D01*
X437686D02*
X452980Y321150D01*
X397724Y347215D02*
X418869D01*
X407708Y309047D02*
Y344322D01*
X313429Y305602D02*
X313929Y306102D01*
X310720Y305602D02*
X313429D01*
X310630Y305512D02*
X310720Y305602D01*
X313929Y306102D02*
X420669D01*
X304331Y297244D02*
X331496Y270079D01*
X304331Y314173D02*
X331496Y341339D01*
X304331Y297244D02*
Y314173D01*
X374677Y350000D02*
X376126Y348551D01*
X381534D01*
X369751Y353724D02*
X392701D01*
X336221Y328740D02*
X351575D01*
X366084Y343250D01*
X387829Y246413D02*
X388605Y247189D01*
X386117Y244739D02*
X387396Y246019D01*
Y246413D01*
X388605Y247189D02*
X388867D01*
X387402Y246413D02*
X387829D01*
X393701Y252023D02*
Y294094D01*
X388867Y247189D02*
X393701Y252023D01*
X546850Y273622D02*
X583071Y237402D01*
X595669D01*
X586614Y245276D02*
X595669D01*
X433039Y353969D02*
X457087Y329921D01*
X421291Y353969D02*
X433039D01*
X438266Y345155D02*
Y345984D01*
X432846Y339736D02*
X438266Y345155D01*
X429528Y340158D02*
X434981Y345611D01*
X431043Y349043D02*
X435206D01*
X438266Y345984D01*
X447244Y346850D02*
X458936Y335158D01*
X447244Y346850D02*
Y354724D01*
X442520Y359449D02*
X447244Y354724D01*
X421654Y359449D02*
X442520D01*
X412205Y350000D02*
X421654Y359449D01*
X418504Y351181D02*
X421291Y353969D01*
X418869Y347215D02*
X418898Y347244D01*
X397695Y347187D02*
X397724Y347215D01*
X485658Y272496D02*
X485827Y272665D01*
X485658Y258831D02*
Y272496D01*
X490158Y242126D02*
Y254331D01*
X485658Y258831D02*
X490158Y254331D01*
X384252Y266929D02*
X384684D01*
X385472Y266142D01*
X390945D01*
X390551Y297244D02*
X393701Y294094D01*
X273541Y315185D02*
X274295Y315939D01*
X276127Y314114D02*
X276238D01*
X273541Y313042D02*
Y315185D01*
Y313042D02*
X275056Y311527D01*
X276238Y314114D02*
X278516Y316391D01*
X274295Y315939D02*
Y321539D01*
X275874Y311527D02*
X313316Y274085D01*
X275056Y311527D02*
X275874D01*
X429528Y330675D02*
X431496Y328707D01*
Y296063D02*
Y328707D01*
X423277Y302843D02*
X423800D01*
X428909Y310827D02*
Y311260D01*
X428709Y303908D02*
Y306249D01*
X422045Y297244D02*
X428709Y303908D01*
X430102Y303331D02*
Y309634D01*
X427516Y307441D02*
X428709Y306249D01*
X419553Y299119D02*
X423277Y302843D01*
X423800D02*
X425871Y304914D01*
X431496Y296063D02*
X438583Y288976D01*
X421654Y294882D02*
X430102Y303331D01*
X427516Y307441D02*
Y307874D01*
X428909Y310827D02*
X430102Y309634D01*
X412205Y310236D02*
Y324945D01*
X428941Y341681D01*
Y346941D01*
X431043Y349043D01*
X429528Y330675D02*
Y340158D01*
X452980Y319007D02*
Y321150D01*
X451381Y317408D02*
X452980Y319007D01*
X441744Y317408D02*
X451381D01*
X439370Y315034D02*
X441744Y317408D01*
X440757Y320079D02*
X450394D01*
X436600Y315923D02*
X440757Y320079D01*
X436600Y313861D02*
Y315923D01*
X436295Y313555D02*
X436600Y313861D01*
X438820Y310826D02*
X442167Y314173D01*
X445380D01*
X434557Y306998D02*
X438385Y310826D01*
X434557Y306914D02*
Y306998D01*
X438385Y310826D02*
X438820D01*
X445380Y314173D02*
X445880Y314673D01*
X448531D01*
X448679Y314821D01*
X420669Y306102D02*
X420866Y305906D01*
X405118Y294882D02*
X421654D01*
X410723Y299119D02*
X419553D01*
X400169Y299831D02*
X405118Y294882D01*
X403106Y301224D02*
X407087Y297244D01*
X422045D01*
X407224Y302618D02*
X410723Y299119D01*
X357387Y302618D02*
X407224D01*
X354375Y299606D02*
X357387Y302618D01*
X314173Y299606D02*
X354375D01*
X357964Y301224D02*
X403106D01*
X351622Y294882D02*
X357964Y301224D01*
X313779Y294882D02*
X351622D01*
X358541Y299831D02*
X400169D01*
X350049Y291339D02*
X358541Y299831D01*
X316535Y291339D02*
X350049D01*
X297244Y300394D02*
Y320866D01*
X340213Y256450D02*
Y256718D01*
X338367Y258563D02*
X340213Y256718D01*
X338367Y258563D02*
Y259271D01*
X297244Y300394D02*
X338367Y259271D01*
X291339Y299606D02*
X292501Y298443D01*
X291339Y299606D02*
Y341339D01*
X281260Y318268D02*
X288189Y325197D01*
X282059Y326996D02*
X283858Y325197D01*
X276094Y326996D02*
X282059D01*
X271708Y322610D02*
X276094Y326996D01*
X271708Y322141D02*
Y322610D01*
X270079Y320511D02*
X271708Y322141D01*
X270079Y320079D02*
Y320511D01*
X294633Y298443D02*
X294939Y298137D01*
X292501Y298443D02*
X294633D01*
X402587Y358213D02*
Y367492D01*
X447638Y281890D02*
X451968Y286221D01*
X447638Y242520D02*
Y281890D01*
X455905Y290158D02*
Y317717D01*
X482677Y344488D01*
X335039Y255906D02*
X338583Y252362D01*
X313316Y273971D02*
Y274085D01*
Y273971D02*
X335264Y252023D01*
X441339Y228007D02*
Y238189D01*
X431496Y218165D02*
X441339Y228007D01*
X431496Y213779D02*
Y218165D01*
X334421Y219122D02*
X336614Y216929D01*
X334421Y219122D02*
Y236078D01*
X379528Y215354D02*
X382283Y218110D01*
X379528Y211024D02*
Y215354D01*
X475591Y213386D02*
X496457Y234252D01*
X491339Y266240D02*
Y309744D01*
X370432Y349253D02*
X373228Y346457D01*
X365398Y349253D02*
X370432D01*
X364751Y348606D02*
X365398Y349253D01*
X354116Y348606D02*
X364751D01*
X346848Y341339D02*
X354116Y348606D01*
X331496Y341339D02*
X346848D01*
X364820Y350647D02*
X371009D01*
X364173Y350000D02*
X364820Y350647D01*
X371009D02*
X371656Y350000D01*
X374677D01*
X344882D02*
X364173D01*
X366562Y346667D02*
X370079Y343150D01*
X353768Y352532D02*
X368559D01*
X327953Y366929D02*
X344882Y350000D01*
X381534Y348551D02*
X382983Y350000D01*
X390158D01*
X294094Y259036D02*
X297244Y255886D01*
X294094Y259036D02*
Y288583D01*
X297244Y224803D02*
Y255886D01*
X278516Y316391D02*
Y324185D01*
X278740Y324410D01*
X335264Y236921D02*
Y252023D01*
X334421Y236078D02*
X335264Y236921D01*
X290945Y277382D02*
Y284874D01*
X338583Y249213D02*
Y252362D01*
X290297Y285522D02*
X290945Y284874D01*
X290297Y285522D02*
Y293447D01*
X253150Y239586D02*
X290945Y277382D01*
X253150Y222441D02*
Y239586D01*
X288189Y325197D02*
Y337795D01*
X276941Y292689D02*
X278740Y294488D01*
X273338Y292689D02*
X276941D01*
X252362Y313665D02*
X273338Y292689D01*
X252362Y313665D02*
Y342520D01*
X487008Y349104D02*
Y374410D01*
X487402Y323838D02*
Y348711D01*
X487008Y349104D02*
X487402Y348711D01*
X476378Y312815D02*
X487402Y323838D01*
X476378Y257874D02*
Y312815D01*
X479921Y249213D02*
Y254331D01*
X476378Y257874D02*
X479921Y254331D01*
X341339Y246063D02*
X344512Y242890D01*
X385409D01*
X433319Y243949D02*
Y244304D01*
X435039Y246024D02*
Y246457D01*
X433319Y244304D02*
X435039Y246024D01*
X432260Y242890D02*
X433319Y243949D01*
X425732Y242890D02*
X432260D01*
X423846Y244776D02*
X425732Y242890D01*
X423846Y244776D02*
Y246233D01*
X421654Y248425D02*
X423846Y246233D01*
X386117Y243597D02*
Y244739D01*
X385409Y242890D02*
X386117Y243597D01*
X361602Y249213D02*
X364783Y252394D01*
X338583Y249213D02*
X361602D01*
X287841Y252317D02*
X293307Y246850D01*
X284092Y252317D02*
X287841D01*
X281496Y249721D02*
X284092Y252317D01*
X281496Y249606D02*
Y249721D01*
X243701Y252362D02*
Y313012D01*
X243307Y313405D02*
X243701Y313012D01*
X243307Y313405D02*
Y373622D01*
X246063Y376378D01*
X248819Y248425D02*
Y372441D01*
X250787Y378346D02*
X253150Y380709D01*
X250787Y374409D02*
Y378346D01*
X248819Y372441D02*
X250787Y374409D01*
X300088Y374891D02*
X300394Y375197D01*
X298119Y374891D02*
X300088D01*
X293701Y370472D02*
X298119Y374891D01*
X480938Y369481D02*
X482677Y371221D01*
X479504Y366905D02*
X480938Y368339D01*
X482677Y371221D02*
Y371654D01*
X480938Y368339D02*
Y369481D01*
X457079Y366905D02*
X479504D01*
X453512Y370472D02*
X457079Y366905D01*
X435039Y370472D02*
X453512D01*
X385648Y382148D02*
X390911D01*
X385016Y381516D02*
X385648Y382148D01*
X428361Y382538D02*
X432029D01*
X435039Y370472D02*
Y379528D01*
X432029Y382538D02*
X435039Y379528D01*
X429134Y378740D02*
X431496Y376378D01*
X422102Y380933D02*
X424295Y378740D01*
X429134D01*
X422879Y388020D02*
X428361Y382538D01*
X390348Y388020D02*
X422879D01*
X388549Y386221D02*
X390348Y388020D01*
X388189Y386221D02*
X388549D01*
X384583Y381516D02*
X385016D01*
X395894Y380933D02*
X422102D01*
X394285Y379324D02*
X395894Y380933D01*
X386098Y379324D02*
X394285D01*
X397115Y371782D02*
X398297D01*
X392520Y376378D02*
X397115Y371782D01*
X398297D02*
X402587Y367492D01*
X362598Y364567D02*
X390168D01*
X395301Y369700D01*
X384142Y377369D02*
X386098Y379324D01*
X384094Y377369D02*
X384142D01*
X357480Y359449D02*
Y362936D01*
X347482Y372934D02*
X357480Y362936D01*
X364567Y359055D02*
X390551D01*
X396647Y365151D01*
X392701Y353724D02*
X400000Y361024D01*
X357480Y359449D02*
X362598Y364567D01*
X368559Y352532D02*
X369751Y353724D01*
X350000Y356299D02*
X353768Y352532D01*
D42*
X595669Y261024D02*
D03*
Y229528D02*
D03*
X595669Y237402D02*
D03*
X595669Y245276D02*
D03*
X595669Y253150D02*
D03*
D64*
X593361Y261024D02*
X595669D01*
X592377Y262008D02*
X593361Y261024D01*
X592377Y262008D02*
Y265497D01*
X589370Y268504D02*
X592377Y265497D01*
X595396Y229254D02*
X595669Y229528D01*
X578861Y229254D02*
X595396D01*
X578740Y229134D02*
X578861Y229254D01*
X375590Y380709D02*
Y387402D01*
X372441Y390551D02*
X375590Y387402D01*
X373676Y378794D02*
X375590Y380709D01*
X371707Y378794D02*
X373676D01*
X371654Y378740D02*
X371707Y378794D01*
X372441Y390551D02*
Y418370D01*
X367846Y422964D02*
X372441Y418370D01*
X363390Y423078D02*
X366142Y420326D01*
Y410065D02*
Y420326D01*
X363390Y423078D02*
Y423248D01*
X363238Y372587D02*
Y419058D01*
X359652Y422644D02*
X363238Y419058D01*
X355512Y422441D02*
X359449Y418504D01*
Y370866D02*
Y418504D01*
Y370866D02*
X361417Y368898D01*
X363442Y372119D02*
X363757Y371804D01*
Y371634D02*
Y371804D01*
X366142Y394732D02*
X368504Y397094D01*
X366142Y378967D02*
Y394732D01*
Y378967D02*
X368898Y376212D01*
X363238Y372587D02*
X363442Y372383D01*
Y372119D02*
Y372383D01*
X368898Y376041D02*
Y376212D01*
X366142Y410065D02*
X368504Y407703D01*
Y397094D02*
Y407703D01*
D65*
X590584Y279641D02*
D03*
X590551Y204724D02*
D03*
Y214567D02*
D03*
Y289370D02*
D03*
X437008Y464567D02*
D03*
X427165D02*
D03*
X417323D02*
D03*
X407480D02*
D03*
X397638D02*
D03*
X387795D02*
D03*
X377953D02*
D03*
X368110D02*
D03*
X358268D02*
D03*
X348425D02*
D03*
X338583D02*
D03*
X328740D02*
D03*
X590551Y338583D02*
D03*
D66*
Y299213D02*
D03*
Y309055D02*
D03*
Y318898D02*
D03*
Y328740D02*
D03*
D67*
X526378Y321260D02*
D03*
X523622Y318898D02*
D03*
Y323228D02*
D03*
X384646Y333071D02*
D03*
X418110Y400787D02*
D03*
X417323Y406299D02*
D03*
X452362Y307874D02*
D03*
X372441Y382283D02*
D03*
X371678Y386247D02*
D03*
X242496Y222071D02*
D03*
X274410Y302756D02*
D03*
X418898Y322047D02*
D03*
X429134Y294882D02*
D03*
X428346Y289764D02*
D03*
X300000Y242913D02*
D03*
X396063Y313779D02*
D03*
X485039Y244094D02*
D03*
X391339Y243307D02*
D03*
X421260Y367323D02*
D03*
X393701Y324410D02*
D03*
X381102Y312992D02*
D03*
X366535Y327165D02*
D03*
X346850Y258661D02*
D03*
X539370Y297494D02*
D03*
X546063Y291589D02*
D03*
X496457Y284252D02*
D03*
X507480Y281496D02*
D03*
X435433Y337650D02*
D03*
X407874Y344488D02*
D03*
X310630Y305512D02*
D03*
X309842Y313779D02*
D03*
X318898Y320866D02*
D03*
X377197Y351138D02*
D03*
X379165Y345870D02*
D03*
X355512Y340551D02*
D03*
X336476Y345669D02*
D03*
X331303D02*
D03*
X354331Y344094D02*
D03*
X405512Y287795D02*
D03*
X407874Y290945D02*
D03*
X361024Y255906D02*
D03*
X353543Y253543D02*
D03*
X387795Y249776D02*
D03*
X387396Y246413D02*
D03*
X379953Y249776D02*
D03*
X589370Y268504D02*
D03*
X578740Y229134D02*
D03*
X546850Y273622D02*
D03*
X457087Y329921D02*
D03*
X434981Y345611D02*
D03*
X458936Y335158D02*
D03*
X412205Y350000D02*
D03*
X418504Y351181D02*
D03*
X407541Y308880D02*
D03*
X418898Y347244D02*
D03*
X485827Y272665D02*
D03*
X490158Y242126D02*
D03*
X387795Y263386D02*
D03*
X384252Y266929D02*
D03*
X390945Y266142D02*
D03*
X276127Y314114D02*
D03*
X427516Y307874D02*
D03*
X428909Y311260D02*
D03*
X425871Y304914D02*
D03*
X412205Y310236D02*
D03*
X436221Y329528D02*
D03*
Y333858D02*
D03*
X420472Y329528D02*
D03*
X450394Y320079D02*
D03*
X439370Y315034D02*
D03*
X436295Y313555D02*
D03*
X434557Y306914D02*
D03*
X448679Y314821D02*
D03*
X420866Y305906D02*
D03*
X418504Y312598D02*
D03*
X297244Y320866D02*
D03*
X294094Y313386D02*
D03*
X281260Y318268D02*
D03*
X314173Y299606D02*
D03*
X313779Y294882D02*
D03*
X316535Y291339D02*
D03*
X283858Y325197D02*
D03*
X291339Y341339D02*
D03*
X270079Y320079D02*
D03*
X274295Y321539D02*
D03*
X390551Y297244D02*
D03*
X391732Y343701D02*
D03*
X355906Y313779D02*
D03*
Y319685D02*
D03*
X397695Y347187D02*
D03*
X294939Y298137D02*
D03*
X411811Y425984D02*
D03*
X451968Y286221D02*
D03*
X447638Y242520D02*
D03*
X455905Y290158D02*
D03*
X482677Y344488D02*
D03*
X438583Y288976D02*
D03*
X253150Y368898D02*
D03*
X331496Y270079D02*
D03*
X340213Y256450D02*
D03*
X338583Y249213D02*
D03*
X335039Y255906D02*
D03*
X441339Y238189D02*
D03*
X431496Y213779D02*
D03*
X336614Y216929D02*
D03*
X379528Y211024D02*
D03*
X382283Y218110D02*
D03*
X379138Y221854D02*
D03*
X354331Y231496D02*
D03*
X359449Y211024D02*
D03*
X426354Y221854D02*
D03*
X473598D02*
D03*
X475591Y213386D02*
D03*
X496457Y341732D02*
D03*
X453150Y362205D02*
D03*
X458268Y342913D02*
D03*
X366562Y346667D02*
D03*
X331496Y341339D02*
D03*
X327953Y366929D02*
D03*
X366084Y343250D02*
D03*
X390158Y350000D02*
D03*
X373228Y346457D02*
D03*
X473598Y345961D02*
D03*
X426354Y345870D02*
D03*
X294094Y288583D02*
D03*
X297244Y224803D02*
D03*
X278740Y324410D02*
D03*
X336221Y328740D02*
D03*
X384339Y345870D02*
D03*
X384311Y221882D02*
D03*
X331835Y222047D02*
D03*
X290297Y293447D02*
D03*
X253150Y222441D02*
D03*
X288189Y337795D02*
D03*
X278740Y294488D02*
D03*
X252362Y342520D02*
D03*
X274410Y295276D02*
D03*
X253937Y251969D02*
D03*
Y259055D02*
D03*
X487008Y374410D02*
D03*
X493307Y366929D02*
D03*
X483071Y250787D02*
D03*
X476378Y257874D02*
D03*
X479921Y249213D02*
D03*
X427197Y249807D02*
D03*
X435039Y246457D02*
D03*
X426803Y245476D02*
D03*
X421654Y248425D02*
D03*
X341339Y246063D02*
D03*
X293307Y246850D02*
D03*
X285163Y249730D02*
D03*
X281496Y249606D02*
D03*
X248819Y248425D02*
D03*
X243701Y252362D02*
D03*
X240721Y346220D02*
D03*
X246063Y376378D02*
D03*
X248819Y372441D02*
D03*
X253150Y380709D02*
D03*
X293701Y370472D02*
D03*
X300394Y375197D02*
D03*
X482677Y371654D02*
D03*
X474441Y373823D02*
D03*
X390911Y382148D02*
D03*
X391732Y385433D02*
D03*
X431496Y376378D02*
D03*
X427197Y373791D02*
D03*
X388189Y386221D02*
D03*
X384583Y381516D02*
D03*
X392520Y376378D02*
D03*
X438976Y366929D02*
D03*
X435039Y370472D02*
D03*
X395301Y369700D02*
D03*
X384094Y377369D02*
D03*
X339370Y381102D02*
D03*
X347482Y372934D02*
D03*
X400000Y361024D02*
D03*
X396457Y364961D02*
D03*
X364567Y359055D02*
D03*
Y367154D02*
D03*
X350000Y356299D02*
D03*
X357480Y359449D02*
D03*
X379559Y369492D02*
D03*
X372441Y367323D02*
D03*
X379953Y373823D02*
D03*
X426824Y369483D02*
D03*
X434602Y391689D02*
D03*
X424451Y390106D02*
D03*
X307087Y388976D02*
D03*
X423228Y383465D02*
D03*
X407480Y367717D02*
D03*
X417323Y374016D02*
D03*
X405512Y398819D02*
D03*
X391732Y399606D02*
D03*
X398031Y393307D02*
D03*
X355906Y402362D02*
D03*
X375590Y392520D02*
D03*
X336614Y388189D02*
D03*
X357087Y368110D02*
D03*
X341339Y385039D02*
D03*
X356299Y398819D02*
D03*
X367846Y422964D02*
D03*
X363390Y423248D02*
D03*
X359652Y422644D02*
D03*
X366308Y373860D02*
D03*
X363757Y371634D02*
D03*
X371654Y378740D02*
D03*
X355512Y422441D02*
D03*
X368898Y376041D02*
D03*
X361417Y368898D02*
D03*
X341732Y398819D02*
D03*
X346850Y392913D02*
D03*
X235409Y227583D02*
D03*
X237378Y222071D02*
D03*
X237772Y245693D02*
D03*
X238165Y250024D02*
D03*
X474047Y369492D02*
D03*
X471685Y351382D02*
D03*
X474047Y245476D02*
D03*
X424441Y351382D02*
D03*
X471685Y227366D02*
D03*
X424441D02*
D03*
X332283Y369291D02*
D03*
X329921Y351181D02*
D03*
X284992Y369492D02*
D03*
X238094Y369842D02*
D03*
X235732Y351732D02*
D03*
X282630Y351382D02*
D03*
X379559Y245476D02*
D03*
X332283Y245669D02*
D03*
X377197Y227366D02*
D03*
X329921Y227559D02*
D03*
X285039Y245669D02*
D03*
X282677Y227559D02*
D03*
X478772Y345870D02*
D03*
X431528D02*
D03*
X332677Y373622D02*
D03*
X284598Y345870D02*
D03*
X285386Y373823D02*
D03*
X289717Y345870D02*
D03*
X474441Y249807D02*
D03*
X431528Y221854D02*
D03*
X478772D02*
D03*
X238488Y374173D02*
D03*
X337008Y222047D02*
D03*
X332677Y250000D02*
D03*
X237700Y346220D02*
D03*
X289764Y222047D02*
D03*
X284646D02*
D03*
D68*
X536417Y300197D02*
D03*
X533957Y305118D02*
D03*
X531496Y300197D02*
D03*
X529036Y305118D02*
D03*
X526575Y300197D02*
D03*
X521654Y310039D02*
D03*
X524114Y305118D02*
D03*
X521654Y300197D02*
D03*
X516732Y310039D02*
D03*
X519193Y305118D02*
D03*
X516732Y300197D02*
D03*
X511811Y310039D02*
D03*
X514272Y305118D02*
D03*
X511811Y300197D02*
D03*
X506890Y319882D02*
D03*
X509350Y314961D02*
D03*
X506890Y310039D02*
D03*
X509350Y305118D02*
D03*
X506890Y300197D02*
D03*
X572835Y311024D02*
D03*
X570866Y307087D02*
D03*
X572835Y303150D02*
D03*
X570866Y299213D02*
D03*
X568898Y311024D02*
D03*
X566929Y307087D02*
D03*
X568898Y303150D02*
D03*
X562992Y314961D02*
D03*
X564961Y311024D02*
D03*
X562992Y307087D02*
D03*
X561024Y318898D02*
D03*
X559055Y314961D02*
D03*
X561024Y311024D02*
D03*
X555118Y322835D02*
D03*
X557087Y318898D02*
D03*
X555118Y314961D02*
D03*
X557087Y311024D02*
D03*
X553150Y326772D02*
D03*
X551181Y322835D02*
D03*
X553150Y318898D02*
D03*
X551181Y314961D02*
D03*
X553150Y311024D02*
D03*
X549213Y326772D02*
D03*
X547244Y322835D02*
D03*
X549213Y318898D02*
D03*
X547244Y314961D02*
D03*
X545276Y326772D02*
D03*
X551181Y346457D02*
D03*
Y338583D02*
D03*
X547244Y354331D02*
D03*
X549213Y350394D02*
D03*
X547244Y346457D02*
D03*
X549213Y342520D02*
D03*
X545276Y358268D02*
D03*
X543307Y354331D02*
D03*
X545276Y350394D02*
D03*
X543307Y346457D02*
D03*
X545276Y342520D02*
D03*
X541339Y358268D02*
D03*
X539370Y354331D02*
D03*
X541339Y350394D02*
D03*
X539370Y346457D02*
D03*
X541339Y342520D02*
D03*
X527559Y366142D02*
D03*
X523622D02*
D03*
Y342520D02*
D03*
X519685Y366142D02*
D03*
X521654Y362205D02*
D03*
X519685Y358268D02*
D03*
X521654Y354331D02*
D03*
X519685Y350394D02*
D03*
X521654Y346457D02*
D03*
X515748Y366142D02*
D03*
X517717Y362205D02*
D03*
X515748Y358268D02*
D03*
X517717Y354331D02*
D03*
X515748Y350394D02*
D03*
X517717Y346457D02*
D03*
M02*
