G04*
G04 #@! TF.GenerationSoftware,Altium Limited,Altium Designer,25.8.1 (18)*
G04*
G04 Layer_Physical_Order=3*
G04 Layer_Color=128*
%FSLAX25Y25*%
%MOIN*%
G70*
G04*
G04 #@! TF.SameCoordinates,0807C7AB-CCCF-4F98-AE98-2EBD5D57369B*
G04*
G04*
G04 #@! TF.FilePolarity,Negative*
G04*
G01*
G75*
%ADD78C,0.01968*%
%ADD84C,0.04000*%
%ADD85C,0.08016*%
G04:AMPARAMS|DCode=86|XSize=75.906mil|YSize=75.906mil|CornerRadius=0mil|HoleSize=0mil|Usage=FLASHONLY|Rotation=0.000|XOffset=0mil|YOffset=0mil|HoleType=Round|Shape=Relief|Width=10mil|Gap=10mil|Entries=4|*
%AMTHD86*
7,0,0,0.07591,0.05591,0.01000,45*
%
%ADD86THD86*%
%ADD87C,0.05299*%
G36*
X458721Y453639D02*
X459688Y453238D01*
X460559Y452657D01*
X461299Y451916D01*
X461880Y451046D01*
X462281Y450079D01*
X462485Y449052D01*
Y448528D01*
Y448005D01*
X462281Y446978D01*
X461880Y446011D01*
X461299Y445140D01*
X460559Y444400D01*
X459688Y443818D01*
X458721Y443418D01*
X457694Y443213D01*
X456647D01*
X455620Y443418D01*
X454653Y443818D01*
X453782Y444400D01*
X453042Y445140D01*
X452460Y446011D01*
X452060Y446978D01*
X451856Y448005D01*
Y448528D01*
Y449052D01*
X452060Y450079D01*
X452460Y451046D01*
X453042Y451916D01*
X453782Y452657D01*
X454653Y453238D01*
X455620Y453639D01*
X456647Y453843D01*
X457694D01*
X458721Y453639D01*
D02*
G37*
G36*
X313051D02*
X314019Y453238D01*
X314889Y452657D01*
X315630Y451916D01*
X316211Y451046D01*
X316612Y450079D01*
X316816Y449052D01*
Y448528D01*
Y448005D01*
X316612Y446978D01*
X316211Y446011D01*
X315630Y445140D01*
X314889Y444400D01*
X314019Y443818D01*
X313051Y443418D01*
X312025Y443213D01*
X310978D01*
X309951Y443418D01*
X308983Y443818D01*
X308113Y444400D01*
X307373Y445140D01*
X306791Y446011D01*
X306390Y446978D01*
X306186Y448005D01*
Y448528D01*
Y449052D01*
X306390Y450079D01*
X306791Y451046D01*
X307373Y451916D01*
X308113Y452657D01*
X308983Y453238D01*
X309951Y453639D01*
X310978Y453843D01*
X312025D01*
X313051Y453639D01*
D02*
G37*
G36*
X563143Y376738D02*
X564110Y376338D01*
X564981Y375756D01*
X565721Y375016D01*
X566303Y374145D01*
X566704Y373178D01*
X566908Y372151D01*
Y371628D01*
Y371104D01*
X566704Y370077D01*
X566303Y369110D01*
X565721Y368239D01*
X564981Y367499D01*
X564110Y366917D01*
X563143Y366517D01*
X562116Y366313D01*
X561069D01*
X560042Y366517D01*
X559075Y366917D01*
X558205Y367499D01*
X557464Y368239D01*
X556883Y369110D01*
X556482Y370077D01*
X556278Y371104D01*
Y371628D01*
Y372151D01*
X556482Y373178D01*
X556883Y374145D01*
X557464Y375016D01*
X558205Y375756D01*
X559075Y376338D01*
X560042Y376738D01*
X561069Y376942D01*
X562116D01*
X563143Y376738D01*
D02*
G37*
G36*
X605512Y240158D02*
X594488Y240158D01*
X594253Y240158D01*
X593819Y240337D01*
X593487Y240669D01*
X593307Y241104D01*
Y241574D01*
X593487Y242008D01*
X593819Y242340D01*
X594253Y242520D01*
X594488Y242520D01*
Y242520D01*
X605512D01*
Y240158D01*
D02*
G37*
G36*
X563051Y203639D02*
X564019Y203238D01*
X564889Y202657D01*
X565629Y201916D01*
X566211Y201046D01*
X566612Y200079D01*
X566816Y199052D01*
Y198528D01*
Y198005D01*
X566612Y196978D01*
X566211Y196011D01*
X565629Y195140D01*
X564889Y194400D01*
X564019Y193818D01*
X563051Y193418D01*
X562025Y193213D01*
X560978D01*
X559951Y193418D01*
X558984Y193818D01*
X558113Y194400D01*
X557373Y195140D01*
X556791Y196011D01*
X556390Y196978D01*
X556186Y198005D01*
Y198528D01*
Y199052D01*
X556390Y200079D01*
X556791Y201046D01*
X557373Y201916D01*
X558113Y202657D01*
X558984Y203238D01*
X559951Y203639D01*
X560978Y203843D01*
X562025D01*
X563051Y203639D01*
D02*
G37*
G36*
X454784Y138678D02*
X455751Y138278D01*
X456622Y137696D01*
X457362Y136956D01*
X457943Y136085D01*
X458344Y135118D01*
X458548Y134091D01*
Y133568D01*
Y133044D01*
X458344Y132017D01*
X457943Y131050D01*
X457362Y130180D01*
X456622Y129439D01*
X455751Y128858D01*
X454784Y128457D01*
X453757Y128253D01*
X452710D01*
X451683Y128457D01*
X450716Y128858D01*
X449845Y129439D01*
X449105Y130180D01*
X448523Y131050D01*
X448123Y132017D01*
X447919Y133044D01*
Y133568D01*
Y134091D01*
X448123Y135118D01*
X448523Y136085D01*
X449105Y136956D01*
X449845Y137696D01*
X450716Y138278D01*
X451683Y138678D01*
X452710Y138883D01*
X453757D01*
X454784Y138678D01*
D02*
G37*
G36*
X313051D02*
X314019Y138278D01*
X314889Y137696D01*
X315630Y136956D01*
X316211Y136085D01*
X316612Y135118D01*
X316816Y134091D01*
Y133568D01*
Y133044D01*
X316612Y132017D01*
X316211Y131050D01*
X315630Y130180D01*
X314889Y129439D01*
X314019Y128858D01*
X313051Y128457D01*
X312025Y128253D01*
X310978D01*
X309951Y128457D01*
X308983Y128858D01*
X308113Y129439D01*
X307373Y130180D01*
X306791Y131050D01*
X306390Y132017D01*
X306186Y133044D01*
Y133568D01*
Y134091D01*
X306390Y135118D01*
X306791Y136085D01*
X307373Y136956D01*
X308113Y137696D01*
X308983Y138278D01*
X309951Y138678D01*
X310978Y138883D01*
X312025D01*
X313051Y138678D01*
D02*
G37*
D78*
X555118Y328346D02*
X563484Y319980D01*
X540158Y328346D02*
X555118D01*
X501968D02*
X540158D01*
X563484Y319980D02*
X568504Y314961D01*
X598032D02*
X604724D01*
X446063Y437008D02*
X470079D01*
X427953Y378740D02*
X475984D01*
X485039Y369685D01*
Y345276D02*
Y369685D01*
Y345276D02*
X501968Y328346D01*
X310236Y377559D02*
X338976D01*
X301181Y386614D02*
X310236Y377559D01*
X301181Y386614D02*
Y412598D01*
X325590Y437008D01*
X446063D01*
X568504Y314961D02*
X598032D01*
X338976Y377559D02*
X340551D01*
X355512Y362598D01*
X418110Y368898D02*
X427953Y378740D01*
X418110Y364961D02*
Y368898D01*
X396457Y364961D02*
X418110D01*
X383858Y377559D02*
X396457Y364961D01*
X355512Y362598D02*
X361811D01*
X376772Y377559D01*
X383858D01*
D84*
X312025Y138883D02*
X313051Y138678D01*
X314019Y138278D01*
X314889Y137696D01*
X315630Y136956D01*
X316211Y136085D01*
X316612Y135118D01*
X316816Y134091D01*
Y133568D02*
Y134091D01*
Y133044D02*
Y133568D01*
X316612Y132017D02*
X316816Y133044D01*
X316211Y131050D02*
X316612Y132017D01*
X315630Y130180D02*
X316211Y131050D01*
X314889Y129439D02*
X315630Y130180D01*
X314019Y128858D02*
X314889Y129439D01*
X313051Y128457D02*
X314019Y128858D01*
X312025Y128253D02*
X313051Y128457D01*
X310978Y128253D02*
X312025D01*
X309951Y128457D02*
X310978Y128253D01*
X308983Y128858D02*
X309951Y128457D01*
X308113Y129439D02*
X308983Y128858D01*
X307373Y130180D02*
X308113Y129439D01*
X306791Y131050D02*
X307373Y130180D01*
X306390Y132017D02*
X306791Y131050D01*
X306186Y133044D02*
X306390Y132017D01*
X306186Y133044D02*
Y133568D01*
Y134091D01*
X306390Y135118D01*
X306791Y136085D01*
X307373Y136956D01*
X308113Y137696D01*
X308983Y138278D01*
X309951Y138678D01*
X310978Y138883D01*
X312025D01*
X453757D02*
X454784Y138678D01*
X455751Y138278D01*
X456622Y137696D01*
X457362Y136956D01*
X457943Y136085D01*
X458344Y135118D01*
X458548Y134091D01*
Y133568D02*
Y134091D01*
Y133044D02*
Y133568D01*
X458344Y132017D02*
X458548Y133044D01*
X457943Y131050D02*
X458344Y132017D01*
X457362Y130180D02*
X457943Y131050D01*
X456622Y129439D02*
X457362Y130180D01*
X455751Y128858D02*
X456622Y129439D01*
X454784Y128457D02*
X455751Y128858D01*
X453757Y128253D02*
X454784Y128457D01*
X452710Y128253D02*
X453757D01*
X451683Y128457D02*
X452710Y128253D01*
X450716Y128858D02*
X451683Y128457D01*
X449845Y129439D02*
X450716Y128858D01*
X449105Y130180D02*
X449845Y129439D01*
X448523Y131050D02*
X449105Y130180D01*
X448123Y132017D02*
X448523Y131050D01*
X447919Y133044D02*
X448123Y132017D01*
X447919Y133044D02*
Y133568D01*
Y134091D01*
X448123Y135118D01*
X448523Y136085D01*
X449105Y136956D01*
X449845Y137696D01*
X450716Y138278D01*
X451683Y138678D01*
X452710Y138883D01*
X453757D01*
X562025Y203843D02*
X563051Y203639D01*
X564019Y203238D01*
X564889Y202657D01*
X565629Y201916D01*
X566211Y201046D01*
X566612Y200079D01*
X566816Y199052D01*
Y198528D02*
Y199052D01*
Y198005D02*
Y198528D01*
X566612Y196978D02*
X566816Y198005D01*
X566211Y196011D02*
X566612Y196978D01*
X565629Y195140D02*
X566211Y196011D01*
X564889Y194400D02*
X565629Y195140D01*
X564019Y193818D02*
X564889Y194400D01*
X563051Y193418D02*
X564019Y193818D01*
X562025Y193213D02*
X563051Y193418D01*
X560978Y193213D02*
X562025D01*
X559951Y193418D02*
X560978Y193213D01*
X558984Y193818D02*
X559951Y193418D01*
X558113Y194400D02*
X558984Y193818D01*
X557373Y195140D02*
X558113Y194400D01*
X556791Y196011D02*
X557373Y195140D01*
X556390Y196978D02*
X556791Y196011D01*
X556186Y198005D02*
X556390Y196978D01*
X556186Y198005D02*
Y198528D01*
Y199052D01*
X556390Y200079D01*
X556791Y201046D01*
X557373Y201916D01*
X558113Y202657D01*
X558984Y203238D01*
X559951Y203639D01*
X560978Y203843D01*
X562025D01*
X562116Y376942D02*
X563143Y376738D01*
X564110Y376338D01*
X564981Y375756D01*
X565721Y375016D01*
X566303Y374145D01*
X566704Y373178D01*
X566908Y372151D01*
Y371628D02*
Y372151D01*
Y371104D02*
Y371628D01*
X566704Y370077D02*
X566908Y371104D01*
X566303Y369110D02*
X566704Y370077D01*
X565721Y368239D02*
X566303Y369110D01*
X564981Y367499D02*
X565721Y368239D01*
X564110Y366917D02*
X564981Y367499D01*
X563143Y366517D02*
X564110Y366917D01*
X562116Y366313D02*
X563143Y366517D01*
X561069Y366313D02*
X562116D01*
X560042Y366517D02*
X561069Y366313D01*
X559075Y366917D02*
X560042Y366517D01*
X558205Y367499D02*
X559075Y366917D01*
X557464Y368239D02*
X558205Y367499D01*
X556883Y369110D02*
X557464Y368239D01*
X556482Y370077D02*
X556883Y369110D01*
X556278Y371104D02*
X556482Y370077D01*
X556278Y371104D02*
Y371628D01*
Y372151D01*
X556482Y373178D01*
X556883Y374145D01*
X557464Y375016D01*
X558205Y375756D01*
X559075Y376338D01*
X560042Y376738D01*
X561069Y376942D01*
X562116D01*
X312025Y453843D02*
X313051Y453639D01*
X314019Y453238D01*
X314889Y452657D01*
X315630Y451916D01*
X316211Y451046D01*
X316612Y450079D01*
X316816Y449052D01*
Y448528D02*
Y449052D01*
Y448005D02*
Y448528D01*
X316612Y446978D02*
X316816Y448005D01*
X316211Y446011D02*
X316612Y446978D01*
X315630Y445140D02*
X316211Y446011D01*
X314889Y444400D02*
X315630Y445140D01*
X314019Y443818D02*
X314889Y444400D01*
X313051Y443418D02*
X314019Y443818D01*
X312025Y443213D02*
X313051Y443418D01*
X310978Y443213D02*
X312025D01*
X309951Y443418D02*
X310978Y443213D01*
X308983Y443818D02*
X309951Y443418D01*
X308113Y444400D02*
X308983Y443818D01*
X307373Y445140D02*
X308113Y444400D01*
X306791Y446011D02*
X307373Y445140D01*
X306390Y446978D02*
X306791Y446011D01*
X306186Y448005D02*
X306390Y446978D01*
X306186Y448005D02*
Y448528D01*
Y449052D01*
X306390Y450079D01*
X306791Y451046D01*
X307373Y451916D01*
X308113Y452657D01*
X308983Y453238D01*
X309951Y453639D01*
X310978Y453843D01*
X312025D01*
X457694D02*
X458721Y453639D01*
X459688Y453238D01*
X460559Y452657D01*
X461299Y451916D01*
X461880Y451046D01*
X462281Y450079D01*
X462485Y449052D01*
Y448528D02*
Y449052D01*
Y448005D02*
Y448528D01*
X462281Y446978D02*
X462485Y448005D01*
X461880Y446011D02*
X462281Y446978D01*
X461299Y445140D02*
X461880Y446011D01*
X460559Y444400D02*
X461299Y445140D01*
X459688Y443818D02*
X460559Y444400D01*
X458721Y443418D02*
X459688Y443818D01*
X457694Y443213D02*
X458721Y443418D01*
X456647Y443213D02*
X457694D01*
X455620Y443418D02*
X456647Y443213D01*
X454653Y443818D02*
X455620Y443418D01*
X453782Y444400D02*
X454653Y443818D01*
X453042Y445140D02*
X453782Y444400D01*
X452460Y446011D02*
X453042Y445140D01*
X452060Y446978D02*
X452460Y446011D01*
X451856Y448005D02*
X452060Y446978D01*
X451856Y448005D02*
Y448528D01*
Y449052D01*
X452060Y450079D01*
X452460Y451046D01*
X453042Y451916D01*
X453782Y452657D01*
X454653Y453238D01*
X455620Y453639D01*
X456647Y453843D01*
X457694D01*
X461599Y470473D02*
X463501Y470094D01*
X460630Y470473D02*
X461599Y470473D01*
X308267Y470472D02*
X460630Y470473D01*
X307259Y470472D02*
X308267Y470472D01*
X305282Y470079D02*
X307259Y470472D01*
X303419Y469307D02*
X305282Y470079D01*
X301742Y468187D02*
X303419Y469307D01*
X300317Y466761D02*
X301742Y468187D01*
X299196Y465085D02*
X300317Y466761D01*
X298425Y463222D02*
X299196Y465085D01*
X298031Y461244D02*
X298425Y463222D01*
X298031Y460236D02*
Y461244D01*
Y438583D02*
Y460236D01*
X297994Y438199D02*
X298031Y438583D01*
X297700Y437489D02*
X297994Y438199D01*
X297157Y436946D02*
X297700Y437489D01*
X296447Y436652D02*
X297157Y436946D01*
X296063Y436614D02*
X296447Y436652D01*
X228346Y436614D02*
X296063D01*
X227377Y436614D02*
X228346Y436614D01*
X225476Y436236D02*
X227377Y436614D01*
X223684Y435494D02*
X225476Y436236D01*
X222072Y434417D02*
X223684Y435494D01*
X220701Y433046D02*
X222072Y434417D01*
X219624Y431434D02*
X220701Y433046D01*
X218882Y429643D02*
X219624Y431434D01*
X218504Y427741D02*
X218882Y429643D01*
X218504Y427741D02*
X218504Y426772D01*
Y155512D02*
Y426772D01*
Y154542D02*
Y155512D01*
Y154542D02*
X218882Y152641D01*
X219624Y150850D01*
X220701Y149238D01*
X222072Y147867D01*
X223684Y146790D01*
X225476Y146047D01*
X227377Y145669D01*
X296063D01*
X296447Y145632D01*
X297157Y145338D01*
X297700Y144795D01*
X297994Y144085D01*
X298031Y143701D01*
X298031Y133858D01*
X298031Y133044D02*
X298031Y133858D01*
X298031Y133044D02*
X298349Y131447D01*
X298972Y129942D01*
X299877Y128588D01*
X301029Y127436D01*
X302383Y126531D01*
X303888Y125908D01*
X305485Y125591D01*
X306299Y125591D01*
X460630Y125591D01*
X461638Y125590D01*
X463616Y125983D01*
X465479Y126755D01*
X467156Y127875D01*
X468582Y129301D01*
X469702Y130977D01*
X470473Y132841D01*
X470866Y134818D01*
X470866Y135827D02*
X470866Y134818D01*
X470866Y135827D02*
X470866Y144095D01*
X470896Y144402D01*
X471131Y144970D01*
X471566Y145404D01*
X472134Y145639D01*
X472441Y145669D01*
X539764Y145669D01*
X540733Y145669D01*
X542635Y146047D01*
X544426Y146789D01*
X546038Y147866D01*
X547409Y149237D01*
X548486Y150849D01*
X549228Y152641D01*
X549606Y154542D01*
X549606Y155512D02*
X549606Y154542D01*
X549606Y155512D02*
X549606Y183071D01*
X549644Y183455D01*
X549938Y184165D01*
X550481Y184708D01*
X551191Y185002D01*
X551575Y185039D01*
X595669Y185039D01*
X596639Y185039D01*
X598540Y185417D01*
X600331Y186159D01*
X601944Y187237D01*
X603314Y188608D01*
X604392Y190220D01*
X605134Y192011D01*
X605512Y193912D01*
X605512Y194882D02*
X605512Y193912D01*
X605512Y194882D02*
X605512Y240158D01*
X594488Y240158D02*
X605512Y240158D01*
X594253D02*
X594488Y240158D01*
X593819Y240337D02*
X594253Y240158D01*
X593487Y240669D02*
X593819Y240337D01*
X593307Y241104D02*
X593487Y240669D01*
X593307Y241104D02*
Y241574D01*
X593487Y242008D01*
X593819Y242340D01*
X594253Y242520D01*
X594488Y242520D01*
Y242520D01*
X605512D01*
X605512Y375590D01*
X605512Y376560D02*
X605512Y375590D01*
X605134Y378462D02*
X605512Y376560D01*
X604392Y380253D02*
X605134Y378462D01*
X603314Y381865D02*
X604392Y380253D01*
X601943Y383236D02*
X603314Y381865D01*
X600331Y384313D02*
X601943Y383236D01*
X598540Y385055D02*
X600331Y384313D01*
X596639Y385433D02*
X598540Y385055D01*
X595669Y385433D02*
X596639Y385433D01*
X551575Y385433D02*
X595669Y385433D01*
X551191Y385471D02*
X551575Y385433D01*
X550481Y385765D02*
X551191Y385471D01*
X549938Y386308D02*
X550481Y385765D01*
X549644Y387017D02*
X549938Y386308D01*
X549606Y387402D02*
X549644Y387017D01*
X549606Y387402D02*
Y426378D01*
X549606Y427386D02*
X549606Y426378D01*
X549213Y429364D02*
X549606Y427386D01*
X548441Y431227D02*
X549213Y429364D01*
X547321Y432903D02*
X548441Y431227D01*
X545895Y434329D02*
X547321Y432903D01*
X544219Y435449D02*
X545895Y434329D01*
X542356Y436221D02*
X544219Y435449D01*
X540378Y436614D02*
X542356Y436221D01*
X539370Y436614D02*
X540378Y436614D01*
X473622Y436614D02*
X539370Y436614D01*
X473313Y436629D02*
X473622Y436614D01*
X472708Y436750D02*
X473313Y436629D01*
X472137Y436986D02*
X472708Y436750D01*
X471624Y437329D02*
X472137Y436986D01*
X471187Y437766D02*
X471624Y437329D01*
X470844Y438279D02*
X471187Y437766D01*
X470608Y438849D02*
X470844Y438279D01*
X470488Y439455D02*
X470608Y438849D01*
X470472Y439764D02*
X470488Y439455D01*
X470472Y439764D02*
Y460630D01*
X470472Y461599D02*
X470472Y460630D01*
X470094Y463501D02*
X470472Y461599D01*
X469352Y465292D02*
X470094Y463501D01*
X468275Y466904D02*
X469352Y465292D01*
X466904Y468275D02*
X468275Y466904D01*
X465292Y469352D02*
X466904Y468275D01*
X463501Y470094D02*
X465292Y469352D01*
D85*
X590584Y279641D02*
D03*
X590551Y204724D02*
D03*
Y214567D02*
D03*
Y299213D02*
D03*
Y309055D02*
D03*
Y318898D02*
D03*
X437008Y464567D02*
D03*
X427165D02*
D03*
X417323D02*
D03*
X407480D02*
D03*
X397638D02*
D03*
X387795D02*
D03*
X377953D02*
D03*
X368110D02*
D03*
X358268D02*
D03*
X348425D02*
D03*
X338583D02*
D03*
X328740D02*
D03*
X590551Y328740D02*
D03*
X228346Y65591D02*
D03*
X247244Y68504D02*
D03*
X228346Y75590D02*
D03*
X247244Y78504D02*
D03*
D86*
X590551Y289370D02*
D03*
Y338583D02*
D03*
D87*
X536417Y300197D02*
D03*
X533957Y305118D02*
D03*
X531496Y300197D02*
D03*
X529036Y305118D02*
D03*
X526575Y300197D02*
D03*
X521654Y310039D02*
D03*
X524114Y305118D02*
D03*
X521654Y300197D02*
D03*
X516732Y310039D02*
D03*
X519193Y305118D02*
D03*
X516732Y300197D02*
D03*
X511811Y310039D02*
D03*
X514272Y305118D02*
D03*
X511811Y300197D02*
D03*
X506890Y319882D02*
D03*
X509350Y314961D02*
D03*
X506890Y310039D02*
D03*
X509350Y305118D02*
D03*
X506890Y300197D02*
D03*
X553150Y326772D02*
D03*
X549213D02*
D03*
X545276D02*
D03*
X551181Y346457D02*
D03*
Y338583D02*
D03*
X547244Y354331D02*
D03*
X549213Y350394D02*
D03*
X547244Y346457D02*
D03*
X549213Y342520D02*
D03*
X545276Y358268D02*
D03*
X543307Y354331D02*
D03*
X545276Y350394D02*
D03*
X543307Y346457D02*
D03*
X545276Y342520D02*
D03*
X541339Y358268D02*
D03*
X539370Y354331D02*
D03*
X541339Y350394D02*
D03*
X539370Y346457D02*
D03*
X541339Y342520D02*
D03*
X393701Y324410D02*
D03*
X539370Y297494D02*
D03*
X546063Y291589D02*
D03*
X496457Y284252D02*
D03*
X507480Y281496D02*
D03*
X435433Y337650D02*
D03*
X407874Y344488D02*
D03*
X310630Y305512D02*
D03*
X318898Y320866D02*
D03*
X379165Y345870D02*
D03*
X355512Y340551D02*
D03*
X336476Y345669D02*
D03*
X331303D02*
D03*
X405512Y287795D02*
D03*
X353543Y253543D02*
D03*
X387795Y249776D02*
D03*
X387396Y246413D02*
D03*
X379953Y249776D02*
D03*
X578740Y229134D02*
D03*
X546850Y273622D02*
D03*
X457087Y329921D02*
D03*
X434981Y345611D02*
D03*
X458936Y335158D02*
D03*
X412205Y350000D02*
D03*
X418504Y351181D02*
D03*
X407541Y308880D02*
D03*
X418898Y347244D02*
D03*
X485827Y272665D02*
D03*
X490158Y242126D02*
D03*
X387795Y263386D02*
D03*
X384252Y266929D02*
D03*
X390945Y266142D02*
D03*
X276127Y314114D02*
D03*
X427516Y307874D02*
D03*
X428909Y311260D02*
D03*
X425871Y304914D02*
D03*
X412205Y310236D02*
D03*
X436221Y329528D02*
D03*
Y333858D02*
D03*
X420472Y329528D02*
D03*
X450394Y320079D02*
D03*
X439370Y315034D02*
D03*
X436295Y313555D02*
D03*
X434557Y306914D02*
D03*
X448679Y314821D02*
D03*
X420866Y305906D02*
D03*
X418504Y312598D02*
D03*
X297244Y320866D02*
D03*
X294094Y313386D02*
D03*
X281260Y318268D02*
D03*
X314173Y299606D02*
D03*
X313779Y294882D02*
D03*
X316535Y291339D02*
D03*
X283858Y325197D02*
D03*
X291339Y341339D02*
D03*
X270079Y320079D02*
D03*
X274295Y321539D02*
D03*
X390551Y297244D02*
D03*
X391732Y343701D02*
D03*
X355906Y313779D02*
D03*
Y319685D02*
D03*
X397695Y347187D02*
D03*
X294939Y298137D02*
D03*
X429134Y292520D02*
D03*
X411811Y425984D02*
D03*
X451968Y286221D02*
D03*
X447638Y242520D02*
D03*
X455905Y290158D02*
D03*
X482677Y344488D02*
D03*
X438583Y288976D02*
D03*
X253150Y368898D02*
D03*
X331496Y270079D02*
D03*
X340213Y256450D02*
D03*
X338583Y249213D02*
D03*
X335039Y255906D02*
D03*
X441339Y238189D02*
D03*
X431496Y213779D02*
D03*
X336614Y216929D02*
D03*
X379528Y211024D02*
D03*
X382283Y218110D02*
D03*
X379138Y221854D02*
D03*
X354331Y231496D02*
D03*
X426354Y221854D02*
D03*
X473598D02*
D03*
X475591Y213386D02*
D03*
X496457Y341732D02*
D03*
X453150Y362205D02*
D03*
X366562Y346667D02*
D03*
X331496Y341339D02*
D03*
X327953Y366929D02*
D03*
X366084Y343250D02*
D03*
X390158Y350000D02*
D03*
X373228Y346457D02*
D03*
X473598Y345961D02*
D03*
X426354Y345870D02*
D03*
X294094Y288583D02*
D03*
X297244Y224803D02*
D03*
X278740Y324410D02*
D03*
X336221Y328740D02*
D03*
X384339Y345870D02*
D03*
X384311Y221882D02*
D03*
X331835Y222047D02*
D03*
X290297Y293447D02*
D03*
X253150Y222441D02*
D03*
X288189Y337795D02*
D03*
X278740Y294488D02*
D03*
X252362Y342520D02*
D03*
X274410Y295276D02*
D03*
X487008Y374410D02*
D03*
X493307Y366929D02*
D03*
X483071Y250787D02*
D03*
X476378Y257874D02*
D03*
X479921Y249213D02*
D03*
X427197Y249807D02*
D03*
X435039Y246457D02*
D03*
X421654Y248425D02*
D03*
X341339Y246063D02*
D03*
X293307Y246850D02*
D03*
X285163Y249730D02*
D03*
X281496Y249606D02*
D03*
X248819Y248425D02*
D03*
X243701Y252362D02*
D03*
X240721Y346220D02*
D03*
X246063Y376378D02*
D03*
X248819Y372441D02*
D03*
X253150Y380709D02*
D03*
X293701Y370472D02*
D03*
X300394Y375197D02*
D03*
X482677Y371654D02*
D03*
X474441Y373823D02*
D03*
X390911Y382148D02*
D03*
X431496Y376378D02*
D03*
X427197Y373791D02*
D03*
X388189Y386221D02*
D03*
X384583Y381516D02*
D03*
X392520Y376378D02*
D03*
X438976Y366929D02*
D03*
X435039Y370472D02*
D03*
X395301Y369700D02*
D03*
X384094Y377369D02*
D03*
X339370Y381102D02*
D03*
X347482Y372934D02*
D03*
X400000Y361024D02*
D03*
X396457Y364961D02*
D03*
X364567Y359055D02*
D03*
Y367154D02*
D03*
X350000Y356299D02*
D03*
X357480Y359449D02*
D03*
X372441Y367323D02*
D03*
X379953Y373823D02*
D03*
X434602Y391689D02*
D03*
X424451Y390106D02*
D03*
X307087Y388976D02*
D03*
X391732Y399606D02*
D03*
X355906Y402362D02*
D03*
X375590Y392520D02*
D03*
X367846Y422964D02*
D03*
X363390Y423248D02*
D03*
X359652Y422644D02*
D03*
X363757Y371634D02*
D03*
X371654Y378740D02*
D03*
X355512Y422441D02*
D03*
X368898Y376041D02*
D03*
X361417Y368898D02*
D03*
X341732Y398819D02*
D03*
X237378Y222071D02*
D03*
X238165Y250024D02*
D03*
X242496Y222071D02*
D03*
X478772Y345870D02*
D03*
X431528D02*
D03*
X332677Y373622D02*
D03*
X284598Y345870D02*
D03*
X285386Y373823D02*
D03*
X289717Y345870D02*
D03*
X474441Y249807D02*
D03*
X431528Y221854D02*
D03*
X478772D02*
D03*
X238488Y374173D02*
D03*
X337008Y222047D02*
D03*
X332677Y250000D02*
D03*
X237700Y346220D02*
D03*
X289764Y222047D02*
D03*
X284646D02*
D03*
M02*
