M48
;Layer_Color=9474304
;FILE_FORMAT=2:5
INCH
;TYPE=PLATED
T01F00S00C0.01299
T02F00S00C0.04016
%
T01
X0475591Y0213386
X0473598Y0221854
X0478772
X0471685Y0227366
X0474047Y0245476
X0474441Y0249807
X0479921Y0249213
X0483071Y0250787
X0476378Y0257874
X0485827Y0272665
X0496457Y0284252
X0507480Y0281496
X0506890Y0300197
X0511811
X0516732
X0521654
X0526575
X0531496
X0536417
X0539370Y0297494
X0546063Y0291589
X0546850Y0273622
X0553150Y0311024
X0557087
X0561024
X0564961
X0568898
X0572835
X0570866Y0307087
X0566929
X0562992
X0568898Y0303150
X0572835
X0570866Y0299213
X0533957Y0305118
X0529036
X0524114
X0519193
X0514272
X0509350
X0511811Y0310039
X0516732
X0521654
X0506890
X0490158Y0242126
X0578740Y0229134
X0589370Y0268504
X0451968Y0286221
X0455905Y0290158
X0438583Y0288976
X0429134Y0292520
X0425871Y0304914
X0427516Y0307874
X0428909Y0311260
X0434557Y0306914
X0420866Y0305906
X0412205Y0310236
X0407541Y0308880
X0407874Y0290945
X0405512Y0287795
X0390551Y0297244
X0390945Y0266142
X0387795Y0263386
X0384252Y0266929
X0387795Y0249776
X0387396Y0246413
X0379559Y0245476
X0379953Y0249776
X0361024Y0255906
X0353543Y0253543
X0346850Y0258661
X0340213Y0256450
X0335039Y0255906
X0332677Y0250000
X0332283Y0245669
X0341339Y0246063
X0338583Y0249213
X0331496Y0270079
X0316535Y0291339
X0313779Y0294882
X0314173Y0299606
X0329921Y0227559
X0331835Y0222047
X0337008
X0336614Y0216929
X0359449Y0211024
X0379528
X0382283Y0218110
X0384311Y0221882
X0379138Y0221854
X0377197Y0227366
X0354331Y0231496
X0424441Y0227366
X0426354Y0221854
X0431528
X0431496Y0213779
X0441339Y0238189
X0447638Y0242520
X0435039Y0246457
X0426803Y0245476
X0427197Y0249807
X0421654Y0248425
X0293307Y0246850
X0285039Y0245669
X0285163Y0249730
X0281496Y0249606
X0282677Y0227559
X0284646Y0222047
X0289764
X0297244Y0224803
X0253150Y0222441
X0242496Y0222071
X0237378
X0235409Y0227583
X0237772Y0245693
X0238165Y0250024
X0243701Y0252362
X0248819Y0248425
X0253937Y0251969
Y0259055
X0274410Y0295276
X0278740Y0294488
X0290297Y0293447
X0294094Y0288583
X0294939Y0298137
X0310630Y0305512
X0309842Y0313779
X0294094Y0313386
X0297244Y0320866
X0283858Y0325197
X0278740Y0324410
X0274295Y0321539
X0270079Y0320079
X0276127Y0314114
X0281260Y0318268
X0288189Y0337795
X0291339Y0341339
X0289717Y0345870
X0284598
X0282630Y0351382
X0284992Y0369492
X0285386Y0373823
X0293701Y0370472
X0300394Y0375197
X0307087Y0388976
X0253150Y0380709
X0246063Y0376378
X0248819Y0372441
X0253150Y0368898
X0238094Y0369842
X0238488Y0374173
X0235732Y0351732
X0237700Y0346220
X0240721
X0252362Y0342520
X0331496Y0341339
X0331303Y0345669
X0336476
X0329921Y0351181
X0327953Y0366929
X0332283Y0369291
X0332677Y0373622
X0339370Y0381102
X0341339Y0385039
X0336614Y0388189
X0346850Y0392913
X0341732Y0398819
X0356299
X0355906Y0402362
X0355512Y0422441
X0359652Y0422644
X0363390Y0423248
X0367846Y0422964
X0375590Y0392520
X0371648Y0383458
X0371654Y0378740
X0368898Y0376041
X0366308Y0373860
X0363757Y0371634
X0361417Y0368898
X0364567Y0367154
X0372441Y0367323
X0379559Y0369492
X0379953Y0373823
X0384094Y0377369
X0384583Y0381516
X0390911Y0382148
X0391732Y0385433
X0388189Y0386221
X0392520Y0376378
X0395301Y0369700
X0396457Y0364961
X0400000Y0361024
X0407480Y0367717
X0417323Y0374016
X0427197Y0373791
X0426824Y0369483
X0435039Y0370472
X0438976Y0366929
X0431496Y0376378
X0423228Y0383465
X0424451Y0390106
X0434602Y0391689
X0417323Y0400000
X0405512Y0398819
X0398031Y0393307
X0391732Y0399606
X0411811Y0425984
X0412205Y0350000
X0418504Y0351181
X0418898Y0347244
X0426354Y0345870
X0431528
X0434981Y0345611
X0435433Y0337650
X0436221Y0333858
Y0329528
X0420472
X0418504Y0312598
X0436295Y0313555
X0439370Y0315034
X0448679Y0314821
X0450394Y0320079
X0457087Y0329921
X0458936Y0335158
X0458268Y0342913
X0453150Y0362205
X0424441Y0351382
X0407874Y0344488
X0397695Y0347187
X0391732Y0343701
X0390158Y0350000
X0384339Y0345870
X0379165
X0373228Y0346457
X0366562Y0346667
X0366084Y0343250
X0354331Y0344094
X0355512Y0340551
X0357480Y0359449
X0364567Y0359055
X0357087Y0368110
X0347482Y0372934
X0350000Y0356299
X0377197Y0351138
X0366535Y0327165
X0355906Y0319685
Y0313779
X0381102Y0312992
X0393701Y0324410
X0336221Y0328740
X0318898Y0320866
X0473598Y0345961
X0478772Y0345870
X0482677Y0344488
X0496457Y0341732
X0517717Y0346457
X0521654
X0519685Y0350394
X0515748
X0517717Y0354331
X0521654
X0519685Y0358268
X0515748
X0517717Y0362205
X0521654
X0519685Y0366142
X0523622
X0527559
X0515748
X0493307Y0366929
X0487008Y0374410
X0482677Y0371654
X0474441Y0373823
X0474047Y0369492
X0471685Y0351382
X0523622Y0342520
X0541339
X0545276
X0549213
X0547244Y0346457
X0551181
X0549213Y0350394
X0545276
X0541339
X0539370Y0354331
X0543307
X0547244
X0545276Y0358268
X0541339
X0539370Y0346457
X0543307
X0551181Y0338583
X0553150Y0326772
X0549213
X0545276
X0547244Y0322835
X0551181
X0555118
X0557087Y0318898
X0561024
X0559055Y0314961
X0562992
X0555118
X0551181
X0547244
X0549213Y0318898
X0553150
X0506890Y0319882
X0509350Y0314961
T02
X0228346Y0065591
Y0075590
X0247244Y0078504
Y0068504
X0590551Y0204724
Y0214567
X0590584Y0279641
X0590551Y0289370
Y0299213
Y0309055
X0437008Y0464567
X0427165
X0417323
X0407480
X0397638
X0387795
X0377953
X0368110
X0358268
X0348425
X0338583
X0328740
X0590551Y0338583
Y0328740
Y0318898
M30
